<svg xmlns="http://www.w3.org/2000/svg" xmlns:xlink="http://www.w3.org/1999/xlink" width="759" height="550" viewBox="0 0 759 550">
    <defs>
        <path id="prefix__a" d="M0.589 0.909L57.909 0.909 57.909 138 0.589 138z"/>
    </defs>
    <g fill="none" fill-rule="evenodd">
        <path fill="#AD233A" d="M546.508 58.475L555.865 58.475 555.865 64.09 545.572 66.897 544.636 62.218z"/>
        <g>
            <path fill="#E9364C" d="M245.508 62.145v-4.68s-8.65-.843-9.358 5.615" transform="translate(301 1.009)"/>
            <path fill="#AD233A" d="M230.58 138.679l-31.069 35.977-23.417 27.12-5.524 6.396-6.37 7.37-23.558 27.274-.192.218v.013l-.166.179v.014l-7.114 8.227c-8.369 9.677-20.174 14.65-32.029 14.65-9.805 0-19.635-3.383-27.633-10.28-8.985-7.753-13.894-18.455-14.56-29.427-.18-2.768-.077-5.536.294-8.28v-.012c.308-2.346.833-4.678 1.538-6.96 1.68-5.344 4.435-10.433 8.32-14.944l.037-.038 3.102-3.59 1.294-1.5 28.98-33.553 64.033-74.146c.14-.167.294-.333.448-.487.448-.5.91-.974 1.358-1.474 2.564-2.807 4.653-4.576 6.806-5.973 0 0 .013-.013.026-.013 1.68-1.09 3.41-1.935 5.434-2.858.513-.231 1.038-.461 1.59-.666 1.974-.782 4.165-1.436 6.113-1.923.257-.064.526-.128.795-.192.013 0 .025 0 .038-.013 1.756-.397 3.538-.68 5.332-.86 7.126-.678 14.406.424 21.122 3.385.077.026.142.064.218.102.09.026.192.077.282.129 3.576 1.614 6.973 3.78 10.1 6.472 5.845 5.05 9.972 11.343 12.33 18.162.09.282.18.563.282.846 0 .025.013.038.013.064 4.345 13.573 1.743 29.017-8.254 40.59" transform="translate(301 1.009)"/>
            <path fill="#0B4599" d="M17.901 427.688C.69 420.118-4.8 393.672 5.744 367.45c10.864-27.018 34.637-43.567 53.098-36.964l211.433 47.632c18.45 6.598 24.621 33.857 13.757 60.874-10.864 27.017-34.638 43.567-53.099 36.964L19.501 428.324c-.544-.194-1.079-.407-1.6-.636" transform="translate(301 1.009)"/>
            <path fill="#1063E8" d="M152.157 211.285l200.85 134.419 65.55 58.52c16.923 12.796 23.041 35.423 14.871 55.002-11.24 26.934-44.224 36.976-68.566 20.876L143.508 349.427l8.65-138.142z" transform="translate(301 1.009)"/>
            <path fill="#1063E8" d="M121.436 502.879c-23.276-1.533-41.474-21.107-41.047-44.68.44-24.286 20.483-43.618 44.769-43.178l265.592-17.203c24.272.44 43.62 20.484 43.18 44.769-.438 24.287-20.481 43.619-44.767 43.18l-265.594 17.2c-.715-.012-1.427-.041-2.133-.088" transform="translate(301 1.009)"/>
            <path stroke="#0B4599" stroke-width=".936" d="M281.743 404.654L353.323 399.991" transform="translate(301 1.009)"/>
            <path fill="#E9364C" d="M362.302 113.912c-.038.356-.085.71-.141 1.067.01.009 0 .028 0 .028-.084.468-.16.926-.261 1.404-1.666 7.626-5.512 33.07-8.825 64.23-.197 1.882-.412 3.8-.608 5.719-.898 8.862-1.75 18.107-2.471 27.474-1.693 21.578-2.79 43.823-2.554 63.52 0 .534.009 1.067.018 1.6l-1.384 51.742c-.79 29.508-23.225 35.196-52.563 38.456l-6.597.732c-45.35 5.039-91.23 2.124-135.577-8.613 0 0-20.68-14.903-20.456-22.1.086-2.61.143-4.285.16-4.688 1.012-21.335 2.93-45.637 6.42-70.875.01-.131.028-.253.047-.384.065-.552.15-1.113.234-1.666.262-1.908.542-3.79.824-5.698.645-4.37 1.282-8.656 1.88-12.821v-.01c.047-.214.066-.41.094-.635.954-6.532 1.844-12.801 2.696-18.791.008-.121.018-.243.046-.364.449-3.257.898-6.457 1.32-9.555 1.525-11.042 2.863-21.14 4.07-30.375.037-.196.056-.383.084-.562.216-1.712.449-3.387.655-5.024.01-.03.01-.038.01-.075.262-1.965.533-3.912.776-5.812v-.028c.252-1.918.505-3.79.749-5.633 2.217-16.657 4.118-30.16 6.213-41.464 2.03-10.892 4.23-19.773 7.075-27.474 1.104-2.967 2.293-5.774 3.622-8.45 4.079-8.301 10.985-14.673 19.304-18.22h.009c.328-.122.647-.253.974-.374.327-.135.665-.27.99-.405l.02-.007c1.628-.571 3.294-1.048 4.998-1.413 1.019-.215 2.058-.402 3.106-.533l22.534-2.948 13.016-1.703 7.196-.945.43-.047c.684-.093 1.358-.17 2.032-.262h.009c.056 0 .103-.01.149-.01.357-.037.72-.074 1.086-.121l1.665-.17h.03c.803-.083 1.627-.157 2.432-.223 1.656-.131 3.313-.253 4.959-.318.815-.047 1.638-.085 2.452-.103 1.657-.056 3.323-.084 4.969-.084.814 0 1.638.009 2.452.028.272 0 .542.009.805.018h.028c.019-.01.037-.01.066-.01h.018c.019 0 .037 0 .066.01.72.009 1.45.038 2.17.075 1.33.028 2.649.103 3.977.187.449.029.908.066 1.357.094.43.028.87.056 1.29.103.404.028.806.066 1.209.103.43.037.842.075 1.273.12.262.01.515.03.786.076.42.038.86.084 1.28.14l.834.085c.328.028.637.065.955.112.225.037.43.057.646.094.186.009.374.037.543.065.439.056.879.122 1.309.178.44.056.88.122 1.31.197.608.093 1.217.168 1.825.27.617.094 1.226.188 1.825.3.468.084.955.178 1.422.253.889.168 1.779.337 2.667.515l3.837-4.576 13.1 1.87 4.718 8.76c.327.112.645.234.972.356 2.855 1.048 5.68 2.18 8.469 3.415.234.112.478.215.729.328.198.084.413.168.6.27.87.376 1.73.778 2.592 1.19.412.177.814.374 1.217.57l1.207.59c.786.374 1.562.786 2.33 1.17.308.168.608.327.908.477l1.693.889c.16.065.309.13.458.225l2.05 1.094.056.029.065.028.02.018.112.056 3.144 1.638c.13.065.243.122.365.197l5.68 2.966.505.28 3.21 1.676c1.722.917 3.313 1.983 4.735 3.2.393.318.759.655 1.123.983.262.252.524.514.777.786 5.484 5.624 8.263 13.513 7.299 21.513" transform="translate(301 1.009)"/>
            <path fill="#EAA54B" d="M303.339 67.142c-2.761 6.27-11.398 19.624-34.437 17.462l-6.55 14.037-2.808-16.845s-13.83-6.915-14.14-20.166c.805-.084 1.629-.158 2.434-.224 1.656-.131 3.313-.253 4.959-.318.814-.047 1.638-.085 2.452-.103 1.656-.056 3.322-.084 4.969-.084.814 0 1.638.009 2.452.028.272 0 .542.009.805.018h.028c.019-.01.037-.01.065-.01h.019c.019 0 .037 0 .065.01.72.009 1.45.038 2.17.075 1.33.028 2.65.103 3.978.187.449.029.908.066 1.357.094.43.028.87.056 1.29.103.404.028.806.066 1.208.103.43.037.843.075 1.274.12.262.01.514.03.786.076.42.038.86.084 1.28.14l.834.085c.328.028.637.066.955.112.225.038.43.057.646.094.186.009.374.037.543.065.439.056.879.122 1.309.178.44.056.88.122 1.31.197.608.093 1.217.168 1.825.27.617.094 1.226.188 1.825.3.468.084.954.178 1.422.253 1.722.318 3.435.664 5.147 1.039.422.093.833.187 1.255.29 1.366.318 2.74.655 4.098 1 .113.029.215.048.336.085.226.047.459.103.674.169.094.028.187.047.28.084h.01c.337.066.655.15.974.253.028 0 .065.009.102.018.824.234 1.666.468 2.499.72.094.029.196.057.3.085" transform="translate(301 1.009)"/>
            <path fill="#AD233A" d="M303.525 66.824L307.268 61.209 294.168 59.338 290.331 63.914z" transform="translate(301 1.009)"/>
            <path fill="#E9364C" d="M347.507 277.373l-.047 1.581c-.01-.533-.018-1.066-.018-1.601l.065.02z" transform="translate(301 1.009)"/>
            <g transform="translate(301 1.009) translate(65 411)">
                <mask id="prefix__b" fill="#fff">
                    <use xlink:href="#prefix__a"/>
                </mask>
                <path fill="#1E0D4D" d="M57.91 92.275c-12.363 22.087-27.837 35.763-39.893 43.812-7.896 5.266-18.35-1.03-17.363-10.475L13.7.91l18.722 1.233c5.547.365 10.736 1.73 15.452 3.888l-.902-.247s-14.823 41.355 9.463 86.095l1.475.397z" mask="url(#prefix__b)"/>
            </g>
            <path fill="#1E0D4D" d="M258.608 36.879s-44.917 16.844-31.816 1.872c0 0-30.88-.936-17.78-18.716 13.101-17.78 33.688-3.743 38.367-9.358 0 0-23.395-15.908 17.78-8.422 41.174 7.486 41.408 34.437 35.208 38.273-6.199 3.837-41.759-3.65-41.759-3.65" transform="translate(301 1.009)"/>
            <path fill="#EAA54B" d="M170.57 208.172l-6.37 7.37-23.558 27.274-.192.218v.013l-.166.179v.013l-7.114 8.228c-8.37 9.677-20.174 14.65-32.03 14.65-9.804 0-19.634-3.383-27.633-10.28-8.984-7.753-13.893-18.455-14.56-29.427-.179-2.768-.076-5.55.295-8.292.307-2.346.833-4.678 1.538-6.96 1.68-5.344 4.435-10.433 8.318-14.944l.038-.04 3.103-3.587 1.294-1.5 28.98-33.555c.088.026.165.064.255.09 4.5 1.64 10.318 3.973 16.778 7.139 8.933 4.37 19.058 10.292 28.53 18.034.025.012.04.038.052.05.192.142.371.296.55.462 8.242 6.819 15.957 15.06 21.892 24.865" transform="translate(301 1.009)"/>
            <g>
                <path fill="#B6EBF2" d="M57.207 76.566L0.709 51.239 0.709 0.769 57.207 26.095z" transform="translate(301 1.009) translate(108 96)"/>
                <path fill="#B9D4D6" d="M22.407 26.034L3.516 17.552 3.516 9.19 22.407 17.673zM22.407 39.135L3.516 30.652 3.516 22.291 22.407 30.774zM53.288 52.236L25.039 40.01 25.039 18.548 53.288 30.774zM53.288 66.272L3.517 43.753 3.517 35.392 53.288 57.911z" transform="translate(301 1.009) translate(108 96)"/>
            </g>
            <path fill="#B6EBF2" d="M207.03 80.178l-26.012-7.676c-6.772-1.997-12.302 1.59-12.35 8.012l-.396 51.422c-.05 6.416 5.401 13.659 12.173 16.18l26.012 9.688c6.772 2.524 12.301-.902 12.351-7.654l.396-54.113c.048-6.757-5.403-13.86-12.175-15.86" transform="translate(301 1.009)"/>
            <path fill="#FFF" d="M202.425 125.657c.038-5.204-2.677-4.055-7.98-5.853-5.305-1.796-7.99-4.74-8.028.38-.038 5.12 2.63 10.22 7.934 12.083 5.304 1.864 8.035-1.406 8.074-6.61" transform="translate(301 1.009)"/>
            <path fill="#FFF" d="M193.65 118.755s.841-5.183 5.654-5.151c0 0-1.64 4.94-5.655 5.15" transform="translate(301 1.009)"/>
            <path fill="#1E0D4D" d="M182.806 82.345c.019-2.37-1.964-4.889-4.427-5.628-2.462-.739-4.473.566-4.491 2.914-.018 2.347 1.964 4.867 4.427 5.627 2.463.76 4.473-.544 4.49-2.913M182.73 92.355c.019-2.37-1.963-4.91-4.426-5.674-2.464-.763-4.474.52-4.492 2.868-.019 2.347 1.964 4.887 4.427 5.672 2.463.786 4.474-.498 4.492-2.867M191.691 89.39c.02-2.39-1.964-4.937-4.427-5.687-2.462-.75-4.472.563-4.49 2.932-.019 2.37 1.963 4.915 4.426 5.687 2.463.771 4.473-.54 4.491-2.932" transform="translate(301 1.009)"/>
            <path fill="#F7C26B" d="M229.422 156.658l.337.15c-.066.954-.178 1.984-.337 3.069v-3.22zM283.116 173.558L283.116 224.034 280.402 222.817 280.459 212.982 280.72 172.482z" transform="translate(301 1.009)"/>
            <path fill="#AD233A" d="M281.493 144.46v85.678c-.38.092-.76.196-1.14.311l.104-17.466.437-68.523h.6z" transform="translate(301 1.009)"/>
            <g>
                <path fill="#B6EBF2" d="M57.207 75.805L0.709 50.478 0.709 0.007 57.207 25.334z" transform="translate(301 1.009) translate(108 35)"/>
                <path fill="#B9D4D6" d="M53.288 39.309L3.517 16.791 3.517 8.43 53.288 30.948zM53.288 52.411L3.517 29.892 3.517 21.531 53.288 44.05zM53.288 65.511L3.517 42.992 3.517 34.631 53.288 57.15z" transform="translate(301 1.009) translate(108 35)"/>
            </g>
            <path fill="#F7C26B" d="M364.996 122.69c0 .055-.019.102-.019.158-.074 1.488-.252 2.976-.504 4.473l-9.096 53.32-5.606 32.846-3.47 20.39-.825 4.83-7.149 41.903-6.223 36.523c-.009.076-.038.168-.046.253-.75 4.248-2.125 8.291-4.043 12.015-5.09 9.882-13.98 17.546-24.92 20.98-11.463 3.593-23.712 2.106-33.828-3.724-.42-.243-.842-.496-1.254-.748-2.78-1.74-5.37-3.819-7.73-6.214l-42.558-43.214-16.264-16.517h-.01l-48.258-49.006-7.607-7.72-1.217-1.245-15.394-15.637c-3.62-3.668-5.867-7.4-7.037-11.19-2.722-8.807.33-17.95 5.465-27.55 2.293-4.286 5.007-8.675 7.805-13.157l1.46-2.359c10.153-16.254 17.078-24.46 22.805-27.39 3.256-1.656 6.138-1.6 8.983-.346.355.168.711.337 1.066.533 4.164 2.246 8.395 6.916 13.831 12.456l.01.01c.066.074.112.102.168.177l3.678 3.687.01.01 10.583 10.62c.851.852 1.946 1.254 3.041 1.254 1.376 0 2.76-.655 3.603-1.928l.524-.805.196-.28 13.541-19.465s.094.113.243.337c1.095 1.49 5.522 7.73 8.395 14.112.645 1.413 1.207 2.836 1.636 4.211.188.608.356 1.216.488 1.806.317 1.385.45 3.331.29 5.708l-.337-.15v3.22c-.459 3.07-1.348 6.615-2.808 10.452-.87 2.293-1.956 4.698-3.275 7.15l3.275 3.284 2.808 2.817 13.877 13.924 15.656 15.702L270.81 225.1l9.508 9.114.037-3.76.047-7.638 2.714 1.217v-50.475l-2.395-1.077.177-28.017.188-30.946c.037-.299.074-.58.094-.879.045-.309.121-.618.177-.936.056-.28.113-.562.187-.852.056-.299.122-.58.206-.87.122-.533.262-1.058.421-1.582.103-.374.224-.757.346-1.132.15-.505.328-1 .505-1.478.178-.496.356-.983.553-1.47.121-.27.233-.55.346-.814.17-.402.346-.804.533-1.197.15-.309.29-.609.45-.927.037-.084.084-.196.14-.28.16-.328.327-.646.506-.974.383-.702.766-1.394 1.197-2.068l.01-.018c.58-.28 16.188-4.342 24.676-8.825.45-.243.926-.449 1.375-.692 1.488-.758 2.92-1.554 4.305-2.377.384-.225.748-.449 1.123-.683 1.197-.739 2.34-1.488 3.444-2.246.365-.243.72-.506 1.076-.758 1.993-1.413 3.817-2.826 5.455-4.183.561.056 1.114.15 1.684.244.525.084 1.048.177 1.563.3.515.102 1.03.223 1.535.354.262.056.515.122.768.178.084.028.177.047.252.075.673.187 1.33.374 1.974.59.094.018.178.056.263.074.262.094.533.178.786.281.196.066.401.15.6.225l.017.018c.234.075.478.16.702.253.403.16.814.318 1.198.496.122.028.234.094.346.15 2.49 1.104 4.857 2.442 7.056 3.958.936.655 1.843 1.348 2.714 2.077 4.407 3.64 8.047 8.142 10.667 13.214.066.065.094.15.122.215.131.271.262.543.392.805 2.967 6.541 4.1 14.017 4.146 20.905" transform="translate(301 1.009)"/>
            <path fill="#E9364C" d="M364.994 122.686c.022 4.044-.334 7.88-.898 11.221L352.39 199.77l-6.912 38.94c-.172-.091-.357-.184-.542-.288-12.488-6.59-36.289-15.667-63.443-8.282-.38.091-.76.194-1.14.31l.104-17.466.437-68.523.197-30.944v-.415c.022-.16.056-.31.091-.46.046-.312.116-.623.173-.934.058-.287.116-.563.185-.852.058-.3.126-.588.207-.876.127-.53.265-1.06.427-1.578.102-.38.218-.76.344-1.13.151-.505.324-1.002.507-1.484.173-.497.358-.98.554-1.465.115-.276.23-.553.346-.818.161-.403.344-.806.53-1.198.15-.31.287-.61.448-.92.035-.093.081-.197.14-.288.16-.323.333-.645.506-.969.38-.703.771-1.394 1.198-2.074l.012-.01c.576-.288 16.185-4.344 24.676-8.826.45-.241.922-.448 1.371-.69 1.486-.76 2.926-1.555 4.31-2.385.38-.22.747-.45 1.116-.68 1.2-.737 2.34-1.486 3.445-2.246.37-.243.725-.508 1.083-.76 1.993-1.406 3.813-2.823 5.45-4.183.563.057 1.116.15 1.68.242.531.093 1.05.184 1.568.3.518.104 1.025.23 1.532.357.265.057.52.126.772.183.081.025.172.047.253.07.668.184 1.325.38 1.97.587.092.023.185.059.265.082.265.091.53.172.784.276.15.046.287.091.438.15l.045.022c.29.105.565.207.841.324.404.16.807.322 1.2.495.114.034.23.091.344.15 9.021 3.893 16.28 10.736 20.438 19.25.057.07.092.15.115.218.138.267.265.543.392.808 2.971 6.531 4.101 14.008 4.147 20.897" transform="translate(301 1.009)"/>
            <path fill="#AD233A" d="M352.39 199.77l-6.911 38.939c-.173-.092-.358-.184-.542-.288l6.844-38.766.61.115z" transform="translate(301 1.009)"/>
            <path fill="#B6EBF2" d="M283.116 173.558v50.476l-2.714-1.217-21.447-9.61-15.656-15.703-13.877-13.924-2.808-2.817V170.33c1.46-3.836 2.35-7.383 2.808-10.452v-3.219l.337.15c.16-2.377.027-4.324-.29-5.708-.132-.59-.3-1.199-.488-1.807l51.74 23.19 2.395 1.075z" transform="translate(301 1.009)"/>
            <path fill="#B9D4D6" d="M279.195 179.172L279.195 187.538 229.422 165.024 229.422 156.657 229.758 156.807zM279.195 200.639L229.424 178.12 229.424 169.759 279.195 192.278zM279.195 205.374L279.195 213.74 243.299 197.504 229.422 183.58 229.422 182.859z" transform="translate(301 1.009)"/>
        </g>
        <g>
            <g>
                <path fill="#B6EBF2" d="M57.05 76.144L0.552 50.817 0.552 0.346 57.05 25.673z" transform="translate(0 .009) translate(528 89)"/>
                <path fill="#B9D4D6" d="M22.251 25.612L3.359 17.13 3.359 8.768 22.251 17.251zM22.251 38.713L3.359 30.231 3.359 21.869 22.251 30.352zM53.131 51.814L24.883 39.588 24.883 18.126 53.131 30.352zM53.131 65.851L3.36 43.332 3.36 34.971 53.131 57.49z" transform="translate(0 .009) translate(528 89)"/>
            </g>
            <path fill="#F7C26B" d="M602.366 49.356c0 .968-.046 1.913-.127 2.87-.322 3.443-1.198 6.715-2.558 9.676-4.193 9.274-12.89 15.644-22.948 15.644-14.17 0-25.633-12.626-25.633-28.19 0-7.235 2.465-13.836 6.532-18.824.38-.46.772-.91 1.187-1.348 4.608-4.966 10.933-8.03 17.914-8.03 3.63 0 7.073.83 10.195 2.34.461.206.911.436 1.348.69 8.376 4.631 14.09 14.158 14.09 25.172" transform="translate(0 .009)"/>
            <path fill="#FC9B78" d="M566.477 62.162c-1.77 0-3.204-1.435-3.204-3.204V46.14c0-1.77 1.434-3.205 3.204-3.205 1.77 0 3.204 1.435 3.204 3.205v12.817c0 1.769-1.434 3.204-3.204 3.204" transform="translate(0 .009)"/>
            <path fill="#1E0D4D" d="M605.46 45.746c0 1.037-.048 2.048-.135 3.073-.13 1.383-.342 2.74-.634 4.064-.582 2.636-4.103 3.211-5.57.945l-5.69-8.797c-12.34-2.469-33.317-12.34-34.612-20.89 4.936-5.319 11.71-8.602 19.188-8.602 3.887 0 7.576.89 10.92 2.505.493.222.974.47 1.443.741 8.97 4.96 15.09 15.165 15.09 26.961M563.352 48.172c0 4.651-3.771 8.422-8.422 8.422-.982 0-1.937-.169-2.816-.486-1.788-.627-3.294-1.844-4.286-3.416-.833-1.3-1.32-2.864-1.32-4.52 0-3.912 2.667-7.196 6.279-8.15.683-.179 1.404-.272 2.143-.272 1.179 0 2.292.243 3.313.683 3.004 1.282 5.109 4.267 5.109 7.74" transform="translate(0 .009)"/>
            <path fill="#1E0D4D" d="M586.746 48.172c0 4.651-3.77 8.422-8.422 8.422-.983 0-1.937-.169-2.817-.486-1.787-.627-3.294-1.844-4.285-3.416-.833-1.3-1.32-2.864-1.32-4.52 0-3.912 2.667-7.196 6.28-8.15.682-.179 1.403-.272 2.142-.272 1.18 0 2.292.243 3.313.683 3.004 1.282 5.11 4.267 5.11 7.74" transform="translate(0 .009)"/>
            <path stroke="#AD233A" stroke-width=".936" d="M570.838 88.41l3.743 15.909s8.499-1.7 17.456-5.594c10.466-4.55 18.172-14.032 19.975-25.301.176-1.096.468-2.091.935-2.793M537.618 64.548c-4.376 18.34 16.376 34.156 16.376 34.156l4.68-14.972" transform="translate(0 .009)"/>
            <path fill="#F2F3F8" d="M581.637 40.434l-6.13 15.674c-1.787-.627-3.294-1.843-4.285-3.415l4.959-12.671c.684-.178 1.404-.271 2.143-.271 1.179 0 2.292.243 3.313.683M558.242 40.434l-6.129 15.674c-1.788-.627-3.294-1.843-4.286-3.415l4.96-12.671c.683-.178 1.403-.271 2.142-.271 1.18 0 2.292.243 3.313.683" transform="translate(0 .009)"/>
            <path stroke="#1E0D4D" stroke-width=".936" d="M593.296 45.365L584.874 47.237" transform="translate(0 .009)"/>
            <path fill="#F7C26B" d="M601.07 48.401c0-4.454-2.064-8.064-4.608-8.064-2.545 0-4.609 3.61-4.609 8.064 0 4.454 2.064 8.064 4.61 8.064 2.543 0 4.606-3.61 4.606-8.064" transform="translate(0 .009)"/>
            <path fill="#89C7CC" d="M493.169 448.683L221.794 327.034 368.711 256.849 640.085 378.5z" transform="translate(0 .009)"/>
            <path fill="#B6EBF2" d="M640.085 393.473L493.169 463.657 493.169 448.684 640.085 378.5z" transform="translate(0 .009)"/>
            <path fill="#89C7CC" d="M493.169 463.656L221.794 342.005 221.794 327.033 493.169 448.683z" transform="translate(0 .009)"/>
            <path fill="#EAA54B" d="M360.459 231.072c-.826-12.884 4.788-25.895 16.03-34.005 17.39-12.545 41.654-8.62 54.199 8.769l63.399 87.882c12.545 17.389 8.618 41.652-8.772 54.197-17.387 12.544-41.652 8.618-54.196-8.77l-63.399-87.882c-4.434-6.145-6.81-13.15-7.261-20.191" transform="translate(0 .009)"/>
            <path fill="#EAA54B" d="M513.764 368.209c-3.748 0-7.362-2.054-9.181-5.623l-25.265-49.596c-2.581-5.065-.566-11.264 4.5-13.844 5.063-2.582 11.263-.567 13.844 4.499l25.266 49.596c2.58 5.066.565 11.264-4.5 13.844-1.496.763-3.092 1.124-4.664 1.124" transform="translate(0 .009)"/>
            <path fill="#EAA54B" d="M491.709 376.47c-3.739-.253-7.206-2.547-8.778-6.231l-21.854-51.192c-2.231-5.228.198-11.276 5.427-13.508 5.226-2.232 11.276.198 13.508 5.426l21.853 51.192c2.232 5.228-.198 11.276-5.426 13.507-1.544.66-3.162.912-4.73.806M467.379 376.47c-3.74-.253-7.206-2.547-8.778-6.231l-21.854-51.192c-2.231-5.228.198-11.276 5.427-13.508 5.226-2.232 11.276.198 13.508 5.426l21.853 51.192c2.232 5.228-.198 11.276-5.426 13.507-1.544.66-3.162.912-4.73.806" transform="translate(0 .009)"/>
            <g>
                <path fill="#B7F2B6" d="M90 121.198L0.022 80.863 0.022 0.483 90 40.818z" transform="translate(0 .009) translate(669 218)"/>
                <path fill="#B9D4D6" d="M81.564 95.619L6.822 64.296 6.822 16.947 81.564 48.269zM53.79 91.734L26.561 79.853 26.561 75.279 53.79 87.16zM53.79 98.758L26.561 86.877 26.561 82.303 53.79 94.184z" transform="translate(0 .009) translate(669 218)"/>
            </g>
            <g>
                <path fill="#B6EBF2" d="M123.954 166.08L0.496 110.737 0.496 0.448 123.954 55.791z" transform="translate(0 .009) translate(197)"/>
                <path fill="#B9D4D6" d="M112.38 130.983L9.825 88.005 9.825 23.038 112.38 66.015zM74.272 125.653L36.91 109.351 36.91 103.074 74.272 119.377zM74.272 135.29L36.91 118.988 36.91 112.711 74.272 129.014z" transform="translate(0 .009) translate(197)"/>
            </g>
            <g>
                <path fill="#B7F2B6" d="M258.305 283.858L0 164.194 0 0.319 258.305 119.983z" transform="translate(0 .009) translate(0 2)"/>
                <path fill="#B9D6B9" d="M245.581 165.362L83.977 92.244 83.977 65.095 245.581 138.214zM77.685 175.656L10.051 145.583 10.051 31.408 77.685 61.481zM245.581 207.899L83.977 134.781 83.977 107.632 245.581 180.751zM245.581 250.436L83.977 177.319 83.977 150.171 245.581 223.288z" transform="translate(0 .009) translate(0 2)"/>
            </g>
            <g>
                <path fill="#B7F2B6" d="M192.469 258.271L0.656 172.286 0.656 0.932 192.469 86.918z" transform="translate(0 .009) translate(522 211)"/>
                <path fill="#B9D4D6" d="M174.485 203.741L15.149 136.969 15.149 36.03 174.485 102.803zM115.277 195.461L57.229 170.133 57.229 160.381 115.277 185.709zM115.277 210.434L57.229 185.106 57.229 175.353 115.277 200.681z" transform="translate(0 .009) translate(522 211)"/>
            </g>
        </g>
        <g stroke="#B7F2B6" stroke-width="4.679">
            <path d="M.29.759L45.87 19.75c13.197 5.499 21.794 18.394 21.794 32.692V93.4M265.09 121.055l-78.543-32.111c-11.184-4.572-23.433 3.654-23.433 15.735v47.676" transform="translate(258 170.009)"/>
        </g>
        <path stroke="#B6EBF2" stroke-width="2.807" d="M320.954 112.72l42.616 19.556c7.808 3.582 7.9 14.643.154 18.355l-72.038 34.52"/>
        <g>
            <path fill="#B6EBF2" d="M272.169 274.683L0.794 153.034 0.794 0.501 272.169 122.153z" transform="translate(221 174.009)"/>
            <path fill="#FFF" d="M144.857 143.611c1.945-17.86-6.514-14.187-21.839-20.63-15.617-6.108-23.435-15.336-24.04.425-.599 15.751 6.45 32.327 21.008 40.1 14.24 8.136 22.933-2.044 24.871-19.895" transform="translate(221 174.009)"/>
            <path fill="#FFF" d="M120.861 119.519s3.688-16.823 18.572-17.035c0 0-6.435 16.55-18.572 17.035" transform="translate(221 174.009)"/>
        </g>
        <path stroke="#B7F2B6" stroke-width="2.807" d="M466.207 267.808l65.32-40.8c20.055-12.526 44.806-14.974 66.926-6.62l70.569 26.65"/>
        <path fill="#E9364C" d="M536.214 45.374L546.508 44.438"/>
    </g>
</svg>
